<svg xmlns="http://www.w3.org/2000/svg" width="20" height="20" viewBox="0 0 20 20" fill="none">
  <path d="M5.00016 12.0833C5.00016 12.5417 4.62516 12.9167 4.16683 12.9167C3.7085 12.9167 3.3335 12.5417 3.3335 12.0833V8.33333C3.3335 7.875 3.7085 7.5 4.16683 7.5C4.62516 7.5 5.00016 7.875 5.00016 8.33333V12.0833ZM16.6668 12.0833C16.6668 12.5417 16.2918 12.9167 15.8335 12.9167C15.3752 12.9167 15.0002 12.5417 15.0002 12.0833V8.33333C15.0002 7.875 15.3752 7.5 15.8335 7.5C16.2918 7.5 16.6668 7.875 16.6668 8.33333V12.0833ZM9.16683 16.6667C9.16683 17.125 8.79183 17.5 8.3335 17.5C7.87516 17.5 7.50016 17.125 7.50016 16.6667V12.9167C7.50016 12.4583 7.87516 12.0833 8.3335 12.0833C8.79183 12.0833 9.16683 12.4583 9.16683 12.9167V16.6667ZM12.5002 16.6667C12.5002 17.125 12.1252 17.5 11.6668 17.5C11.2085 17.5 10.8335 17.125 10.8335 16.6667V12.9167C10.8335 12.4583 11.2085 12.0833 11.6668 12.0833C12.1252 12.0833 12.5002 12.4583 12.5002 12.9167V16.6667Z" fill="#878787"/>
  <path d="M5.8335 7.49992V13.7499C5.8335 14.2083 6.2085 14.5833 6.66683 14.5833H13.3335C13.7918 14.5833 14.1668 14.2083 14.1668 13.7499V7.49992H5.8335ZM10.0002 3.33325C7.50016 3.33325 5.9585 4.83325 5.8335 6.66658H14.1668C14.0418 4.83325 12.5002 3.33325 10.0002 3.33325ZM8.3335 5.66659C8.0835 5.66659 7.91683 5.49992 7.91683 5.24992C7.91683 4.99992 8.0835 4.83325 8.3335 4.83325C8.5835 4.83325 8.75016 4.99992 8.75016 5.24992C8.75016 5.45825 8.5835 5.66659 8.3335 5.66659ZM11.6668 5.66659C11.4168 5.66659 11.2502 5.49992 11.2502 5.24992C11.2502 4.99992 11.4168 4.83325 11.6668 4.83325C11.9168 4.83325 12.0835 4.99992 12.0835 5.24992C12.0835 5.45825 11.9168 5.66659 11.6668 5.66659Z" fill="#878787"/>
  <path d="M11.7915 4.37508C11.7082 4.37508 11.6248 4.33341 11.5415 4.29175C11.3332 4.16675 11.2915 3.91675 11.4165 3.70841L12.1248 2.66675C12.2498 2.45841 12.4998 2.41675 12.7082 2.54175C12.9165 2.66675 12.9582 2.91675 12.8332 3.12508L12.1248 4.16675C12.0832 4.29175 11.9582 4.37508 11.7915 4.37508ZM8.0415 4.20841C7.9165 4.20841 7.74984 4.12508 7.70817 4.00008L7.1665 3.12508C7.0415 2.91675 7.08317 2.66675 7.2915 2.54175C7.49984 2.41675 7.74984 2.45841 7.87484 2.66675L8.4165 3.54175C8.5415 3.75008 8.49984 4.00008 8.2915 4.12508C8.20817 4.16675 8.12484 4.20841 8.0415 4.20841Z" fill="#878787"/>
</svg>
