<svg xmlns="http://www.w3.org/2000/svg" width="14" height="17" viewBox="0 0 14 17" fill="none">
  <path d="M13.4008 5.45513C13.3085 5.52713 11.6779 6.45033 11.6779 8.50313C11.6779 10.8775 13.7527 11.7175 13.8148 11.7383C13.8053 11.7895 13.4852 12.8887 12.7209 14.0087C12.0394 14.9943 11.3276 15.9783 10.2448 15.9783C9.16201 15.9783 8.88335 15.3463 7.63336 15.3463C6.41521 15.3463 5.9821 15.9991 4.99166 15.9991C4.00122 15.9991 3.31014 15.0871 2.51556 13.9671C1.59519 12.6519 0.851562 10.6087 0.851562 8.66953C0.851562 5.55913 2.86429 3.90953 4.84516 3.90953C5.8977 3.90953 6.77508 4.60393 7.43591 4.60393C8.06488 4.60393 9.04577 3.86793 10.2432 3.86793C10.697 3.86793 12.3276 3.90953 13.4008 5.45513ZM9.67474 2.55113C10.17 1.96073 10.5203 1.14153 10.5203 0.322332C10.5203 0.208732 10.5107 0.0935324 10.49 0.000732422C9.6843 0.0311324 8.72571 0.539933 8.14769 1.21353C7.69387 1.73193 7.2703 2.55113 7.2703 3.38153C7.2703 3.50633 7.291 3.63113 7.30056 3.67113C7.35151 3.68073 7.43432 3.69193 7.51712 3.69193C8.24004 3.69193 9.14927 3.20553 9.67474 2.55113Z" fill="white"/>
</svg>
