<svg width="1723" height="1623" viewBox="0 0 1723 1623" fill="none" xmlns="http://www.w3.org/2000/svg">
<g filter="url(#filter0_fn_2018_4967)">
<g clip-path="url(#clip0_2018_4967)">
<g filter="url(#filter1_f_2018_4967)">
<path d="M-177.458 925.124C-121.153 939.041 -64.8473 952.959 -8.54188 966.876C-22.1904 964.475 -27.7066 958.491 -27.2611 957.074C-18.3358 927.976 -4.47805 896.665 11.423 867.208C169.101 571.864 523.558 461.356 855.138 466.488C855.987 466.486 856.837 466.486 857.688 466.486C1194.42 461.766 1540.67 581.692 1709.39 869.596C1727.61 900.011 1744.99 935.938 1754.49 962.4C1796.16 951.467 1837.84 940.533 1879.51 929.6C1866.84 880.89 1851.02 843.848 1831.39 803.695C1656.69 440.983 1227.44 278.915 857.688 287.514C856.745 287.514 855.802 287.515 854.86 287.516C486.402 280.272 69.0541 450.241 -106.918 804.943C-125.472 841.291 -141.365 877.315 -154.208 918.868C-154.445 919.658 -155.032 920.114 -156.123 920.767C-157.279 921.637 -158.816 922.299 -160.741 922.762C-162.666 923.225 -164.979 923.49 -167.683 923.564C-168.021 923.573 -168.365 923.58 -168.715 923.583C-168.89 923.585 -169.067 923.586 -169.245 923.586C-169.334 923.588 -169.422 923.58 -169.515 923.592C-169.616 923.635 -169.718 923.677 -169.82 923.718C-170.635 924.047 -171.46 924.319 -172.297 924.533C-173.97 924.962 -175.689 925.161 -177.458 925.124Z" fill="#8CBCFF" fill-opacity="0.34"/>
</g>
<g filter="url(#filter2_f_2018_4967)">
<path d="M-146.878 832.682C-110.959 841.561 -75.0405 850.439 -39.1215 859.318C-40.25 859.294 -41.2547 859.049 -42.1317 858.595C-42.5703 858.368 -42.9769 858.088 -43.3512 857.757C-43.7304 857.445 -44.1451 857.331 -44.5141 857.115C-46.0104 856.323 -47.2087 855.492 -48.1095 854.63C-49.0102 853.769 -49.6135 852.878 -49.92 851.969C-50.2693 851.205 -50.4113 850.717 -50.2429 850.157C-40.6084 818.805 -26.3821 786.64 -10.0008 755.936C150.989 449.846 516.831 328.574 855.088 334.088C855.954 334.086 856.821 334.086 857.688 334.086C1200.39 328.664 1561.68 456.219 1731.48 757.665C1749.95 789.844 1767.05 825.973 1777.12 856.462C1803.71 849.487 1830.29 842.513 1856.88 835.538C1844.78 790.856 1828.68 754.015 1809.3 715.626C1635.69 366.456 1221.46 212.018 857.688 219.914C856.761 219.914 855.835 219.915 854.91 219.916C493.128 213.055 87.1659 372.259 -85.494 716.215C-103.568 751.316 -119.092 786.486 -131.226 825.784C-131.448 826.524 -131.874 826.987 -132.647 827.664C-133.479 828.543 -134.543 829.255 -135.844 829.807C-137.144 830.358 -138.68 830.748 -140.456 830.981C-140.678 831.01 -140.903 831.036 -141.133 831.061C-141.248 831.073 -141.363 831.084 -141.48 831.095C-141.539 831.102 -141.595 831.1 -141.657 831.116C-141.726 831.159 -141.795 831.201 -141.864 831.242C-142.416 831.572 -142.969 831.845 -143.524 832.063C-144.633 832.497 -145.75 832.706 -146.878 832.682Z" fill="#FF64DD" fill-opacity="0.7"/>
</g>
<g filter="url(#filter3_f_2018_4967)">
<path d="M-72.4799 777.081C-46.8266 783.027 -21.1734 788.973 4.47991 794.919C3.68027 794.898 2.97755 794.671 2.37499 794.249C1.76364 793.859 1.30917 793.058 0.7557 792.852C-0.285246 792.176 -1.10898 791.449 -1.71555 790.677C-2.32212 789.906 -2.71152 789.09 -2.88395 788.237C-2.93138 788.039 -2.9422 787.756 -2.98557 787.637C-3.02277 787.496 -3.0475 787.356 -3.05975 787.218C-3.08426 786.94 -3.0589 786.668 -2.98373 786.4C5.97242 755.194 18.9804 723.462 33.9221 693.047C178.68 389.015 527.784 250.505 854.819 257.631C855.697 257.629 856.576 257.629 857.456 257.629C1188.45 250.472 1534.59 393.248 1686.96 694.342C1703.74 726.464 1719.03 761.453 1728.51 793.009C1747.5 788.336 1766.5 783.664 1785.49 778.991C1774.95 738.006 1760.45 702.509 1743.27 666.2C1591.02 332.801 1205.21 166.837 857.456 176.371C856.528 176.371 855.601 176.372 854.674 176.374C509.046 167.77 129.869 336.945 -20.6733 666.488C-36.6327 699.869 -50.4306 733.652 -60.9265 770.105C-61.0173 770.428 -61.1525 770.73 -61.3322 771.01C-61.4221 771.151 -61.523 771.286 -61.6352 771.415C-61.7397 771.517 -61.9109 771.816 -62.0639 772.003C-62.6971 772.83 -63.4917 773.522 -64.4503 774.081C-65.4088 774.64 -66.5313 775.066 -67.8199 775.361C-68.4122 775.304 -69.2837 776.152 -70.0765 776.51C-70.8804 776.909 -71.6803 777.102 -72.4799 777.081Z" fill="#FF7000"/>
</g>
<g style="mix-blend-mode:plus-lighter" filter="url(#filter4_f_2018_4967)">
<path d="M-100.713 718.671C-78.2375 723.557 -55.7625 728.443 -33.2875 733.329C-33.9833 733.308 -34.5903 733.075 -35.1052 732.641C-35.3626 732.424 -35.5971 732.156 -35.8082 731.839C-35.8609 731.759 -35.9122 731.677 -35.9621 731.592C-36.0107 731.501 -36.0621 731.425 -36.1237 731.395C-36.2417 731.314 -36.3567 731.231 -36.4688 731.148C-37.3648 730.48 -38.0686 729.751 -38.5799 728.967C-39.626 727.487 -39.7624 725.271 -39.5336 724.407C-30.4883 690.661 -17.3989 656.242 -2.45407 623.316C140.205 293.512 504.668 122.985 854.363 132.489C855.344 132.487 856.325 132.486 857.307 132.486C1210.85 122.825 1573.2 296.869 1723.39 624.453C1740.16 659.408 1755.34 696.847 1765.03 731.762C1781.68 727.921 1798.32 724.079 1814.97 720.238C1804.63 677.64 1790.22 639.768 1773.29 601.361C1625.58 247.347 1227.4 49.2599 857.307 61.5143C856.277 61.5143 855.247 61.5153 854.218 61.5174C486.304 50.3035 94.8221 251.03 -50.8081 601.549C-66.493 636.918 -80.1681 673.045 -90.3771 711.039C-90.6404 712.034 -91.9159 714.241 -93.5989 715.352C-94.4537 715.957 -95.4499 716.434 -96.5895 716.785C-96.7319 716.829 -96.8766 716.871 -97.0236 716.911C-97.0608 716.923 -97.0954 716.924 -97.1358 716.947C-97.1808 716.991 -97.2258 717.034 -97.2707 717.075C-97.3606 717.159 -97.4504 717.24 -97.54 717.317C-97.8983 717.626 -98.2543 717.883 -98.6084 718.087C-99.3164 718.495 -100.017 718.692 -100.713 718.671Z" fill="white"/>
</g>
<g style="mix-blend-mode:plus-lighter" filter="url(#filter5_f_2018_4967)">
<path d="M-30.8235 739.201C-8.27449 743.734 14.2745 748.266 36.8235 752.799C36.1301 752.775 35.5185 752.558 34.9912 752.156C34.7275 751.956 34.4849 751.709 34.2637 751.417C34.1531 751.271 34.0478 751.113 33.9479 750.945C33.8381 750.821 33.7141 750.776 33.6016 750.69C32.6888 750.061 31.965 749.377 31.4303 748.643C30.8956 747.909 30.5499 747.126 30.3933 746.299C30.313 745.893 30.2906 745.433 30.2943 745.051C30.2723 744.775 30.2941 744.502 30.3597 744.232C38.3047 712.003 49.9026 678.629 63.0297 646.916C186.289 329.027 520.588 141.46 854.67 152.489C855.653 152.487 856.638 152.486 857.623 152.486C1195.36 141.297 1527.41 331.938 1657.99 647.931C1672.8 681.669 1686.22 717.615 1694.94 751.347C1711.65 747.782 1728.35 744.218 1745.06 740.653C1736 699.871 1723.43 663.512 1708.66 626.574C1583.17 286.688 1214.79 67.193 857.623 81.5143C856.581 81.5143 855.539 81.5155 854.499 81.518C499.247 68.368 137.918 290.451 13.9617 626.81C0.255737 660.784 -11.8151 695.761 -20.7346 731.857C-20.8098 732.167 -20.9243 732.46 -21.0783 732.735C-21.2619 733.134 -21.5058 733.605 -21.7736 733.995C-22.3138 734.794 -22.9984 735.475 -23.829 736.038C-24.6596 736.602 -25.6362 737.048 -26.7604 737.377C-26.9032 737.429 -27.0364 737.424 -27.1956 737.526C-27.3685 737.69 -27.5412 737.842 -27.7139 737.983C-28.0593 738.263 -28.4044 738.496 -28.7495 738.681C-29.4397 739.05 -30.1301 739.225 -30.8235 739.201Z" fill="white" fill-opacity="0.6"/>
</g>
</g>
</g>
<defs>
<filter id="filter0_fn_2018_4967" x="0" y="0" width="1723" height="1723" filterUnits="userSpaceOnUse" color-interpolation-filters="sRGB">
<feFlood flood-opacity="0" result="BackgroundImageFix"/>
<feBlend mode="normal" in="SourceGraphic" in2="BackgroundImageFix" result="shape"/>
<feGaussianBlur stdDeviation="50" result="effect1_foregroundBlur_2018_4967"/>
<feTurbulence type="fractalNoise" baseFrequency="2 2" stitchTiles="stitch" numOctaves="3" result="noise" seed="6632" />
<feColorMatrix in="noise" type="luminanceToAlpha" result="alphaNoise" />
<feComponentTransfer in="alphaNoise" result="coloredNoise1">
<feFuncA type="discrete" tableValues="1 1 1 1 1 1 1 1 1 1 1 1 1 1 1 1 1 1 1 1 1 1 1 1 1 1 1 1 1 1 1 1 1 1 1 1 1 1 1 1 1 1 1 1 1 1 1 1 1 1 1 0 0 0 0 0 0 0 0 0 0 0 0 0 0 0 0 0 0 0 0 0 0 0 0 0 0 0 0 0 0 0 0 0 0 0 0 0 0 0 0 0 0 0 0 0 0 0 0 0 "/>
</feComponentTransfer>
<feComposite operator="in" in2="effect1_foregroundBlur_2018_4967" in="coloredNoise1" result="noise1Clipped" />
<feFlood flood-color="rgba(0, 0, 0, 0.25)" result="color1Flood" />
<feComposite operator="in" in2="noise1Clipped" in="color1Flood" result="color1" />
<feMerge result="effect2_noise_2018_4967">
<feMergeNode in="effect1_foregroundBlur_2018_4967" />
<feMergeNode in="color1" />
</feMerge>
</filter>
<filter id="filter1_f_2018_4967" x="-376.758" y="87.8899" width="2455.57" height="1078.29" filterUnits="userSpaceOnUse" color-interpolation-filters="sRGB">
<feFlood flood-opacity="0" result="BackgroundImageFix"/>
<feBlend mode="normal" in="SourceGraphic" in2="BackgroundImageFix" result="shape"/>
<feGaussianBlur stdDeviation="99.65" result="effect1_foregroundBlur_2018_4967"/>
</filter>
<filter id="filter2_f_2018_4967" x="-277.978" y="88.5269" width="2265.96" height="901.891" filterUnits="userSpaceOnUse" color-interpolation-filters="sRGB">
<feFlood flood-opacity="0" result="BackgroundImageFix"/>
<feBlend mode="normal" in="SourceGraphic" in2="BackgroundImageFix" result="shape"/>
<feGaussianBlur stdDeviation="65.55" result="effect1_foregroundBlur_2018_4967"/>
</filter>
<filter id="filter3_f_2018_4967" x="-197.48" y="50.9829" width="2107.97" height="868.936" filterUnits="userSpaceOnUse" color-interpolation-filters="sRGB">
<feFlood flood-opacity="0" result="BackgroundImageFix"/>
<feBlend mode="normal" in="SourceGraphic" in2="BackgroundImageFix" result="shape"/>
<feGaussianBlur stdDeviation="62.5" result="effect1_foregroundBlur_2018_4967"/>
</filter>
<filter id="filter4_f_2018_4967" x="-240.912" y="-79.2225" width="2196.09" height="952.752" filterUnits="userSpaceOnUse" color-interpolation-filters="sRGB">
<feFlood flood-opacity="0" result="BackgroundImageFix"/>
<feBlend mode="normal" in="SourceGraphic" in2="BackgroundImageFix" result="shape"/>
<feGaussianBlur stdDeviation="70.1" result="effect1_foregroundBlur_2018_4967"/>
</filter>
<filter id="filter5_f_2018_4967" x="-171.023" y="-59.347" width="2056.29" height="952.346" filterUnits="userSpaceOnUse" color-interpolation-filters="sRGB">
<feFlood flood-opacity="0" result="BackgroundImageFix"/>
<feBlend mode="normal" in="SourceGraphic" in2="BackgroundImageFix" result="shape"/>
<feGaussianBlur stdDeviation="70.1" result="effect1_foregroundBlur_2018_4967"/>
</filter>
<clipPath id="clip0_2018_4967">
<rect x="100" y="100" width="1523" height="1523" rx="761.5" fill="white"/>
</clipPath>
</defs>
</svg>
